<svg width="341" height="132" viewBox="0 0 341 132" fill="none" xmlns="http://www.w3.org/2000/svg">
<path d="M334.617 63.2705C332.651 62.6152 330.715 62.1387 328.809 61.8408C326.903 61.4834 325.026 61.3047 323.18 61.3047C317.58 61.3047 313.023 63.5684 309.508 68.0957C305.994 72.5635 304.236 78.6694 304.236 86.4136V130.108H276V38.6084H304.236V54.8711H304.594C306.798 48.9141 309.925 44.4463 313.976 41.4678C318.027 38.4893 322.882 37 328.541 37C330.745 37 332.83 37.1787 334.796 37.5361C336.821 37.834 338.817 38.3701 340.783 39.1445L334.617 63.2705Z" fill="url(#paint0_linear_4406_370)" style=""/>
<path d="M185.519 125.09C182.719 127.115 179.264 128.753 175.153 130.004C171.043 131.315 166.575 131.97 161.75 131.97C151.266 131.97 143.492 129.558 138.428 124.732C133.365 119.907 130.833 112.699 130.833 103.108V59.1455H116V38.3257H130.833V15.0039L158.98 10V38.3257H180.961V59.1455H158.98V98.998C158.98 102.811 159.725 105.64 161.214 107.487C162.763 109.333 164.997 110.257 167.916 110.257C169.286 110.257 170.656 110.048 172.026 109.631C173.396 109.155 175.243 108.231 177.566 106.861L185.519 125.09Z" fill="url(#paint1_linear_4406_370)" style=""/>
<path d="M265.519 125.09C262.719 127.115 259.264 128.753 255.153 130.004C251.043 131.315 246.575 131.97 241.75 131.97C231.266 131.97 223.492 129.558 218.428 124.732C213.365 119.907 210.833 112.699 210.833 103.108V59.1455H196V38.3257H210.833V15.0039L238.98 10V38.3257H260.961V59.1455H238.98V98.998C238.98 102.811 239.725 105.64 241.214 107.487C242.763 109.333 244.997 110.257 247.916 110.257C249.286 110.257 250.656 110.048 252.026 109.631C253.396 109.155 255.243 108.231 257.566 106.861L265.519 125.09Z" fill="url(#paint2_linear_4406_370)" style=""/>
<path d="M105.976 75.6841C105.976 92.0063 101.418 105.201 92.3042 115.269C83.1899 125.276 69.8164 130.28 52.1836 130.28C35.0869 130.28 22.1006 125.366 13.2246 115.537C4.4082 105.648 0 92.7212 0 76.7563V0H28.9512V75.6841C28.9512 85.2749 31.1851 92.5723 35.6528 97.5762C40.1206 102.521 45.9883 104.993 53.2559 104.993C60.3447 104.993 66.0933 102.61 70.5015 97.8442C74.9097 93.019 77.1138 85.9897 77.1138 76.7563V0H105.976V75.6841Z" fill="url(#paint3_linear_4406_370)" style=""/>
<defs>
<linearGradient id="paint0_linear_4406_370" x1="308.391" y1="37" x2="308.391" y2="130.108" gradientUnits="userSpaceOnUse">
<stop stop-color="#1158A0"/>
<stop offset="0.5" stop-color="#4151E1" stop-opacity="0.8"/>
<stop offset="1" stop-color="#967BB6" stop-opacity="0.6"/>
</linearGradient>
<linearGradient id="paint1_linear_4406_370" x1="150.759" y1="10" x2="150.759" y2="131.97" gradientUnits="userSpaceOnUse">
<stop stop-color="#1158A0"/>
<stop offset="0.5" stop-color="#4151E1" stop-opacity="0.8"/>
<stop offset="1" stop-color="#967BB6" stop-opacity="0.6"/>
</linearGradient>
<linearGradient id="paint2_linear_4406_370" x1="230.759" y1="10" x2="230.759" y2="131.97" gradientUnits="userSpaceOnUse">
<stop stop-color="#1158A0"/>
<stop offset="0.5" stop-color="#4151E1" stop-opacity="0.8"/>
<stop offset="1" stop-color="#967BB6" stop-opacity="0.6"/>
</linearGradient>
<linearGradient id="paint3_linear_4406_370" x1="52.9878" y1="0" x2="52.9878" y2="130.28" gradientUnits="userSpaceOnUse">
<stop stop-color="#1158A0"/>
<stop offset="0.5" stop-color="#4151E1" stop-opacity="0.8"/>
<stop offset="1" stop-color="#967BB6" stop-opacity="0.6"/>
</linearGradient>
</defs>
</svg>
